<svg xmlns="http://www.w3.org/2000/svg" viewBox="0 0 512 512">
  <defs>
    <linearGradient id="bgGradient" x1="0%" y1="0%" x2="100%" y2="100%">
      <stop offset="0%" style="stop-color:#FB923C"/>
      <stop offset="100%" style="stop-color:#EA580C"/>
    </linearGradient>
  </defs>
  <!-- Background fills entire icon -->
  <rect width="512" height="512" rx="108" fill="url(#bgGradient)"/>
  <!-- Simple "A" letter for Actoos Tech with wrench accent -->
  <text x="256" y="340" 
        font-family="SF Pro Display, -apple-system, Helvetica Neue, Arial, sans-serif" 
        font-size="280" 
        font-weight="700" 
        fill="white" 
        text-anchor="middle"
        letter-spacing="-10">A</text>
  <!-- Small wrench icon accent -->
  <g transform="translate(340, 340) scale(0.45)">
    <path d="M140 20 C100 20 68 52 68 92 C68 108 73 123 82 135 L22 195 C12 205 12 221 22 231 C32 241 48 241 58 231 L118 171 C130 180 145 185 161 185 C201 185 233 153 233 113 C233 103 231 94 228 86 L178 136 L135 93 L185 43 C177 40 168 38 158 38 C118 38 86 70 86 110" 
          fill="white" opacity="0.95"/>
  </g>
</svg>
